<svg xmlns="http://www.w3.org/2000/svg" viewBox="0 0 720 360" width="720" height="360" fill="none">
  <rect width="720" height="360" rx="36" fill="#FFFFFF"/>
  <circle cx="128" cy="180" r="86" fill="#FFEBE0"/>
  <path d="M80 153h96l-8 75H88l-8-75Z" fill="#FFFFFF" stroke="#FF7E36" stroke-width="4" stroke-linejoin="round"/>
  <path d="M102 153c0-17 11-31 26-31s26 14 26 31" stroke="#FF7E36" stroke-width="4" stroke-linecap="round"/>
  <circle cx="110" cy="188" r="10" fill="#FFEBE0" stroke="#FF7E36" stroke-width="4"/>
  <circle cx="146" cy="188" r="10" fill="#FFEBE0" stroke="#FF7E36" stroke-width="4"/>
  <path d="M220 180h72" stroke="#FF7E36" stroke-width="4" stroke-linecap="round" stroke-dasharray="7 10"/>
  <path d="m280 168 12 12-12 12" stroke="#FF7E36" stroke-width="4" stroke-linecap="round" stroke-linejoin="round"/>
  <rect x="306" y="108" width="126" height="144" rx="28" fill="#FFEBE0" stroke="#FF7E36" stroke-width="4"/>
  <path d="M326 144h86a18 18 0 0 1 18 18v56H326v-74Z" fill="#FFFFFF" stroke="#FF7E36" stroke-width="4" stroke-linejoin="round"/>
  <circle cx="399" cy="181" r="10" fill="#FF7E36"/>
  <path d="M446 180h72" stroke="#FF7E36" stroke-width="4" stroke-linecap="round" stroke-dasharray="7 10"/>
  <path d="m506 168 12 12-12 12" stroke="#FF7E36" stroke-width="4" stroke-linecap="round" stroke-linejoin="round"/>
  <circle cx="592" cy="180" r="86" fill="#FFEBE0"/>
  <path d="M542 222v-84m0 84h108" stroke="#EEEEEE" stroke-width="6" stroke-linecap="round"/>
  <path d="m554 206 27-25 24 10 33-48" stroke="#FF7E36" stroke-width="6" stroke-linecap="round" stroke-linejoin="round"/>
  <path d="m624 144 14-1-1 14" stroke="#FF7E36" stroke-width="6" stroke-linecap="round" stroke-linejoin="round"/>
</svg>
