<svg xmlns="http://www.w3.org/2000/svg" viewBox="0 0 64 64" width="64" height="64"><path d="M6 16 23 10l18 6 17-6v38l-17 6-18-6-17 6V16Z" fill="#E9F1FE"/><path d="M23 10v38M41 16v38" fill="none" stroke="#4880EE" stroke-width="2.4" stroke-linejoin="round" stroke-dasharray="5 5"/><path d="M6 16 23 10l18 6 17-6v38l-17 6-18-6-17 6V16Z" fill="none" stroke="#4880EE" stroke-width="3" stroke-linejoin="round"/><path d="M32 20c5 0 9 4 9 9 0 6-9 15-9 15s-9-9-9-15c0-5 4-9 9-9Z" fill="#4880EE"/><circle cx="32" cy="29" r="3.4" fill="#FFFFFF"/></svg>
